<svg width="28" height="28" viewBox="0 0 28 28" fill="none" xmlns="http://www.w3.org/2000/svg">
<g id="Frame">
<path id="Vector" d="M24.01 19.9958C23.8906 20.1948 23.697 20.3382 23.4718 20.3945C23.2467 20.4507 23.0084 20.4152 22.8094 20.2958C22.6104 20.1764 22.467 19.9828 22.4107 19.7576C22.3545 19.5325 22.39 19.2942 22.5094 19.0952C23.4333 17.5564 23.9198 15.7948 23.9167 14C23.9167 8.52312 19.477 4.08337 14 4.08337C8.52312 4.08337 4.08337 8.52312 4.08337 14C4.08337 19.477 8.52312 23.9167 14 23.9167C15.7946 23.9199 17.556 23.4335 19.0946 22.51C19.1931 22.4509 19.3023 22.4117 19.416 22.3948C19.5296 22.3779 19.6455 22.3836 19.757 22.4114C19.8685 22.4393 19.9734 22.4889 20.0657 22.5573C20.158 22.6257 20.236 22.7116 20.2951 22.8101C20.3542 22.9087 20.3933 23.0179 20.4102 23.1315C20.4272 23.2452 20.4215 23.3611 20.3937 23.4725C20.3658 23.584 20.3162 23.6889 20.2478 23.7812C20.1794 23.8736 20.0935 23.9515 19.995 24.0106C18.1844 25.0973 16.1117 25.6699 14 25.6667C7.55683 25.6667 2.33337 20.4432 2.33337 14C2.33337 7.55683 7.55683 2.33337 14 2.33337C20.4432 2.33337 25.6667 7.55683 25.6667 14C25.6667 16.1409 25.0883 18.1992 24.01 19.9958ZM17.7917 11.9584C17.7917 13.7603 16.5142 15.263 14.8059 15.652V16.625C14.8059 16.8571 14.7137 17.0797 14.5496 17.2438C14.3855 17.4079 14.163 17.5 13.9309 17.5C13.6989 17.5 13.4763 17.4079 13.3122 17.2438C13.1481 17.0797 13.0559 16.8571 13.0559 16.625V14.875C13.0559 14.643 13.1481 14.4204 13.3122 14.2563C13.4763 14.0922 13.6989 14 13.9309 14C15.1011 14 16.0417 13.0813 16.0417 11.9584C16.0417 10.8355 15.1011 9.91671 13.9309 9.91671C13.1988 9.91671 12.5341 10.279 12.1488 10.8635C12.0497 11.0137 11.9713 11.1767 11.9158 11.3479C11.8414 11.5649 11.6847 11.744 11.4796 11.8467C11.2744 11.9493 11.0371 11.9673 10.8188 11.8967C10.6006 11.8261 10.4187 11.6726 10.3125 11.4693C10.2063 11.2659 10.1842 11.029 10.251 10.8095C10.3548 10.4881 10.5018 10.1824 10.6879 9.90067C11.3949 8.82733 12.607 8.16671 13.9312 8.16671C16.0583 8.16671 17.7917 9.85954 17.7917 11.9584ZM14 20.125C13.768 20.125 13.5454 20.0329 13.3813 19.8688C13.2172 19.7047 13.125 19.4821 13.125 19.25C13.125 19.018 13.2172 18.7954 13.3813 18.6313C13.5454 18.4672 13.768 18.375 14 18.375C14.2321 18.375 14.4547 18.4672 14.6188 18.6313C14.7829 18.7954 14.875 19.018 14.875 19.25C14.875 19.4821 14.7829 19.7047 14.6188 19.8688C14.4547 20.0329 14.2321 20.125 14 20.125Z" fill="#7D7D7D"/>
</g>
</svg>
